<svg xmlns="http://www.w3.org/2000/svg" xmlns:xlink="http://www.w3.org/1999/xlink" width="585.449" height="588" viewBox="0 0 585.449 588">
  <defs>
    <filter id="Caminho_1716" x="112.143" y="92.365" width="366.528" height="330.907" filterUnits="userSpaceOnUse">
      <feOffset dy="3" input="SourceAlpha"/>
      <feGaussianBlur stdDeviation="3" result="blur"/>
      <feFlood flood-opacity="0.161"/>
      <feComposite operator="in" in2="blur"/>
      <feComposite in="SourceGraphic"/>
    </filter>
  </defs>
  <g id="logo1" transform="translate(855 1208)">
    <path id="Caminho_251" data-name="Caminho 251" d="M138.77,522.184a98.234,98.234,0,0,1,0-138.919L333.265,188.77a98.234,98.234,0,0,1,138.919,0l194.5,194.495a98.234,98.234,0,0,1,0,138.919" transform="translate(-965 -1368)" fill="#fff"/>
    <path id="Caminho_1687" data-name="Caminho 1687" d="M138.77,160a98.234,98.234,0,0,0,0,138.919L333.265,493.414a98.234,98.234,0,0,0,138.919,0l194.5-194.495a98.234,98.234,0,0,0,0-138.919" transform="translate(-965 -1142.183)" fill="#fff"/>
    <g id="Logomarca_da_Igreja_Adventista_do_Sétimo_Dia_-_Cópia" data-name="Logomarca_da_Igreja_Adventista_do_Sétimo_Dia - Cópia" transform="translate(-733.857 -1109.635)">
      <g id="Grupo_2533" data-name="Grupo 2533" transform="translate(0 0)">
        <g transform="matrix(1, 0, 0, 1, -121.14, -98.36)" filter="url(#Caminho_1716)">
          <path id="Caminho_1716-2" data-name="Caminho 1716" d="M574.365,324.27c0,1.268,1.462,1.278,1.728,0,1.931-9.4,4.881-15.68,9.486-21.765l-10.359.009a.854.854,0,0,0-.856.855Zm76.047-130.55c-.424-1.379-1.618-1.471-1.609-.028.119,13.594-3.787,25.275-28.6,50.1l-19.641,19.614c-8.934,8.934-16.967,17.1-21.71,25.247h19.385l2.3-2.3,28.162-28.188c23.456-23.456,26.727-48.273,21.719-64.449M624.088,276.66,600.559,300.2c-14.236,14.246-26.2,26.517-26.2,39.936l.018,3.732c0,1.02,1.26,1.177,1.646.12,4.4-12.022,19.091-24.845,46.037-20.294,0,0,117.391,20.285,118.373,20.367a1.116,1.116,0,0,0,.975-1.9c-.45-.533-54.632-54.715-54.632-54.715ZM539.161,302.5a.858.858,0,0,1-.854-.855V289.5a.858.858,0,0,1,.854-.855l20.552.009a.862.862,0,0,0,.855-.864c-.055-10.91-8.281-18.318-41.231-12.583l-71.147,12.233s-54.2,54.181-54.642,54.715a1.116,1.116,0,0,0,.975,1.9c.993-.083,118.373-20.367,118.373-20.367,26.948-4.549,41.645,8.272,46.037,20.294.386,1.057,1.646.9,1.646-.12,0-.726.009-40.506.009-40.506a.859.859,0,0,0-.854-.855ZM506.366,132.736c-23.456,23.456-26.727,48.273-21.719,64.449.422,1.379,1.617,1.471,1.6.028-.111-13.594,3.8-25.275,28.62-50.1l53.5-53.491c14.238-14.237,26.2-26.508,26.2-39.927V32.757c0-1.268-1.452-1.278-1.719,0-3.521,17.086-10.35,23.823-24.439,37.913Zm88.253-42.289V69.372c0-1.268-1.461-1.278-1.719,0-3.52,17.086-10.34,23.934-24.43,38.014l-56.195,56.148C485,190.8,480.29,217.2,494.161,234.159c.918,1.14,1.921.46,1.313-.91-9.172-20.744,12.822-42.748,23.29-53.216l49.659-49.651c14.237-14.246,26.2-26.518,26.2-39.936m-80.8,108.345c-27.271,27.27-14.733,53.6,1.177,60.854,1.4.643,1.949-.5.881-1.415-12.757-11.057-8.877-29.642,7.162-45.68l45.331-45.331c14.237-14.237,26.195-26.508,26.195-39.927V106.363c0-1.277-1.461-1.277-1.719,0-3.519,17.077-10.34,23.786-24.43,37.877Zm60.5,67.785v21.075c0,1.268,1.453,1.278,1.719,0,3.521-17.077,10.34-23.925,24.421-38.014l22.326-22.279C650.051,200.1,654.765,173.7,640.9,156.742c-.927-1.14-1.921-.46-1.314.91,9.173,20.744-12.822,42.739-23.29,53.216L600.51,226.649c-14.246,14.237-26.2,26.508-26.2,39.927m26.2-53.795c-14.09,14.09-20.909,20.809-24.431,37.887-.257,1.278-1.719,1.278-1.719,0V229.74c0-13.419,11.957-25.689,26.2-39.936l11.452-11.452c16.048-16.039,19.918-34.623,7.16-45.68-1.066-.919-.515-2.059.882-1.415,15.91,7.243,28.448,33.583,1.177,60.863Z" transform="translate(-272.07 66.56)" fill="#29c17e"/>
        </g>
      </g>
    </g>
  </g>
</svg>
